PathFileType	4	(X/Y/Z)	C:\Users\Basilio\Documents\Thesis Gigler\squatting_fais\c3dfiles\019\SLS_front_pre4\markers_experimental.trc
DataRate	CameraRate	NumFrames	NumMarkers	Units	OrigDataRate	OrigDataStartFrame	OrigNumFrames
200.000000	200.000000	4	59	mm	200.000000	390	1561
Frame#	Time	LBHD			RBHD			C7			T10			CLAV			LSHO			LUUPA			LMUPA			LDUPA			LLEP			LMEP			LRAD			LUL			LRFIN			RSHO			RUPA1			RMUPA			RDUPA			RLEP			RMEP			RRAD			RUL			RUFIN			LASI			RASI			USACR			LSACR			RSACR			LTHI1			LTHI2			LTHI3			LTHI4			LLFC			LTIB1			LTIB2			LTIB3			LTIB4			LLMAL			LMMAL			LHEE			LMT1			LMT2			LMT5			RTHI			RTHI2			RTHI3			RTHI4			RLFC			RTIB1			RTIB2			RTIB3			RTIB4			RLMAL			RMMAL			RHEE			RMT1			RMT2			RMT5			FHD			
		X1	Y1	Z1	X2	Y2	Z2	X3	Y3	Z3	X4	Y4	Z4	X5	Y5	Z5	X6	Y6	Z6	X7	Y7	Z7	X8	Y8	Z8	X9	Y9	Z9	X10	Y10	Z10	X11	Y11	Z11	X12	Y12	Z12	X13	Y13	Z13	X14	Y14	Z14	X15	Y15	Z15	X16	Y16	Z16	X17	Y17	Z17	X18	Y18	Z18	X19	Y19	Z19	X20	Y20	Z20	X21	Y21	Z21	X22	Y22	Z22	X23	Y23	Z23	X24	Y24	Z24	X25	Y25	Z25	X26	Y26	Z26	X27	Y27	Z27	X28	Y28	Z28	X29	Y29	Z29	X30	Y30	Z30	X31	Y31	Z31	X32	Y32	Z32	X33	Y33	Z33	X34	Y34	Z34	X35	Y35	Z35	X36	Y36	Z36	X37	Y37	Z37	X38	Y38	Z38	X39	Y39	Z39	X40	Y40	Z40	X41	Y41	Z41	X42	Y42	Z42	X43	Y43	Z43	X44	Y44	Z44	X45	Y45	Z45	X46	Y46	Z46	X47	Y47	Z47	X48	Y48	Z48	X49	Y49	Z49	X50	Y50	Z50	X51	Y51	Z51	X52	Y52	Z52	X53	Y53	Z53	X54	Y54	Z54	X55	Y55	Z55	X56	Y56	Z56	X57	Y57	Z57	X58	Y58	Z58	X59	Y59	Z59	

391	1.95	-407.6329040527345	1681.67138671875	-829.0991210937502	-410.5437622070314	1678.350708007813	-689.4264526367189	-427.9411926269532	1505.999633789063	-747.1774902343751	-449.2251586914064	1213.48779296875	-746.0689086914064	-287.6191101074219	1472.92724609375	-755.4948120117189	-353.9510498046876	1518.451293945313	-887.512145996094	-226.8000030517579	1508.064575195313	-939.0021972656252	-202.6109771728516	1499.751098632813	-896.6805419921877	-159.8654174804688	1511.243286132813	-938.2158203125002	-86.50673675537111	1494.66162109375	-971.3629150390627	-82.59521484375001	1435.30859375	-965.1077270507815	162.7959594726563	1506.559204101563	-885.1668701171877	159.7068328857422	1517.810180664063	-951.1517333984377	235.0279388427735	1520.998168945313	-881.9760742187502	-337.6529541015626	1514.62060546875	-626.1145019531251	-210.6236419677735	1459.021484375	-533.1181030273439	-187.4360961914063	1487.894775390625	-566.5957641601564	-138.3070068359375	1462.376586914063	-533.2144775390626	-64.76760864257814	1466.307373046875	-548.7246704101564	-69.92629241943361	1405.325805664063	-559.1174926757814	167.7506256103516	1493.249389648438	-639.5818481445314	181.3722229003907	1501.542114257813	-575.1223144531251	254.2066802978516	1511.373779296875	-645.1226806640626	-288.2250671386719	1015.124450683594	-869.520202636719	-277.6491088867188	1006.266296386719	-658.4082641601564	-444.9848632812501	1079.534057617188	-753.2582397460939	-450.4857788085939	1047.136352539063	-782.1760253906252	-446.3555603027345	1047.1962890625	-724.2640991210939	-288.3773803710938	762.5845947265626	-953.6134033203127	-232.7707672119141	698.5634765625001	-951.630065917969	-190.3403015136719	714.0844116210939	-934.8569335937502	-243.2956695556641	638.6400756835939	-946.5742797851565	-233.4248504638672	544.7988281250001	-940.9755859375002	-211.5662384033204	397.7882080078126	-920.1204223632815	-275.1836242675782	372.5430908203126	-975.417419433594	-240.7358856201172	359.2440185546876	-952.9946289062502	-261.1396179199219	279.0250549316407	-924.2739868164065	-357.5928039550782	173.37060546875	-955.4992675781252	-337.1035766601563	168.0065155029297	-877.5170898437502	-426.3511962890626	142.2830505371094	-901.309997558594	-229.5118255615235	73.2018508911133	-909.763122558594	-227.7417907714844	79.06516265869142	-949.5791625976565	-280.3523559570313	72.91023254394533	-998.1267700195315	-315.3863830566407	802.8992919921877	-594.1368408203126	-273.8584594726563	752.9378662109376	-603.9372558593751	-250.2606353759766	759.5103149414064	-627.6008300781251	-299.5205993652344	674.2301635742189	-606.8656616210939	-335.2367858886719	514.1696166992189	-644.3408813476564	-299.0012512207032	335.8420715332032	-715.9256591796876	-351.8975524902344	253.9262695312501	-663.3034057617189	-318.5143432617188	252.6549530029297	-697.3445434570314	-331.6151428222657	214.1725463867188	-740.2006225585939	-392.9512329101564	128.1193084716797	-700.1176147460939	-377.0169982910157	134.4843444824219	-774.2175292968752	-456.9000549316407	106.7339019775391	-750.2554931640626	-257.5655822753907	54.26571273803712	-774.9566040039065	-249.1400146484376	54.42607879638673	-732.5755615234376	-292.6659851074219	50.85331344604494	-675.0267333984376	-281.2102966308594	1724.179077148438	-687.3209228515626	
392	1.955	-407.7749633789064	1681.949584960938	-828.519226074219	-410.4005432128907	1678.56689453125	-688.6818847656251	-427.7226867675782	1506.025390625	-746.6829833984376	-449.3103027343751	1213.633056640625	-745.5972900390626	-287.4496154785157	1473.22509765625	-755.2271728515626	-353.8845214843751	1518.634765625	-886.9293212890627	-226.7675781250001	1508.11181640625	-938.4895019531252	-202.562728881836	1499.785278320313	-896.1983032226565	-159.9019012451172	1511.301635742188	-937.7836914062502	-86.5597381591797	1494.590209960938	-970.9165649414065	-82.66126251220705	1435.208984375	-964.707702636719	162.9218292236328	1506.014404296875	-884.683288574219	159.1096801757813	1517.435791015625	-951.019226074219	235.6777343750001	1520.210205078125	-880.9111938476565	-337.6384277343751	1514.729736328125	-625.6405639648439	-210.6382446289063	1458.856201171875	-532.7159423828126	-187.3787231445313	1487.855712890625	-566.1266479492189	-138.3787536621094	1462.187622070313	-532.5387573242189	-64.39895629882814	1465.9375	-548.1447143554689	-69.71101379394533	1405.004028320313	-558.6949462890626	167.8579711914063	1492.939331054688	-639.2659912109376	181.4314117431641	1501.274047851563	-574.7561035156251	254.2556304931641	1511.131958007813	-644.4780273437501	-288.1708984375001	1015.375061035156	-868.836853027344	-277.8175659179688	1006.225891113281	-657.7918701171876	-444.9615783691407	1079.670166015625	-752.7535400390626	-450.5713500976564	1047.308349609375	-781.6981201171877	-446.4791870117189	1047.30126953125	-723.8629150390626	-287.8432312011719	762.7446289062501	-952.7525024414065	-232.0083770751954	698.6411132812501	-950.491394042969	-189.6647338867188	714.2861938476564	-933.8596191406252	-242.4838256835938	638.9697875976564	-945.2926025390627	-232.6366577148438	545.0798339843751	-939.7047119140627	-209.7002105712891	398.3445129394532	-918.4888916015627	-272.7865295410157	372.0945434570313	-973.9967041015627	-238.5572967529297	359.3914184570313	-951.287536621094	-258.6577453613282	279.0675354003907	-922.466247558594	-353.8789062500001	172.4468078613282	-953.9275512695315	-333.9857177734376	167.5464630126953	-875.935729980469	-422.8499755859376	140.9039611816407	-900.192321777344	-225.4815216064454	73.87318420410158	-907.0701293945315	-222.5725097656251	79.22231292724611	-946.2595214843752	-274.9225463867188	72.90172576904298	-995.4053955078127	-315.6156921386719	802.7796630859377	-593.6884765625001	-274.4566345214844	751.8274536132814	-603.7363281250001	-250.384994506836	759.5198974609376	-627.0882568359376	-299.7885742187501	674.2346801757814	-606.4018554687501	-335.2110900878907	513.9704589843751	-644.0315551757814	-299.0282897949219	335.9244995117188	-715.6750488281251	-351.8973693847657	253.9380950927735	-663.1857299804689	-318.4920043945313	252.6398010253907	-697.0978393554689	-331.6654663085938	214.1972351074219	-740.1162109375001	-392.9674072265626	128.1701354980469	-700.1149291992189	-377.0072631835938	134.5359344482422	-774.2189941406252	-456.7453002929689	106.6388320922852	-750.2411499023439	-256.8719787597657	54.26139068603517	-774.7517089843752	-249.1535034179688	54.43830490112306	-732.5767822265626	-292.7137145996094	50.83908462524415	-674.9854736328126	-281.0968017578126	1724.336303710938	-686.9958496093751	
393	1.96	-407.6575317382814	1682.082275390625	-828.059997558594	-410.3904724121095	1678.662109375	-688.1466064453126	-427.4898376464845	1506.106201171875	-746.1453247070314	-449.3287658691407	1213.8017578125	-745.1253051757814	-287.2606811523438	1473.42724609375	-754.5439453125001	-353.7247314453126	1518.778076171875	-886.1873779296877	-226.7400207519532	1508.158447265625	-937.9607543945315	-202.5296936035157	1499.847900390625	-895.7077636718752	-159.8614959716797	1511.211059570313	-937.2595825195315	-86.51295471191408	1494.5087890625	-970.4952392578127	-82.71932983398439	1435.144287109375	-964.354187011719	162.9389343261719	1505.69677734375	-884.293395996094	158.9581756591797	1517.0166015625	-950.758239746094	235.7330169677735	1519.655639648438	-880.5894775390627	-337.7034912109376	1514.862670898438	-625.0436401367189	-210.305160522461	1458.156616210938	-532.1123046875001	-187.2286071777344	1487.698486328125	-565.5265502929689	-138.4321899414063	1462.016357421875	-532.0974121093751	-64.4780960083008	1465.871704101563	-547.7554321289064	-70.14698791503908	1404.700073242188	-558.0540161132814	167.7760772705078	1492.661865234375	-638.6145629882814	181.4149932861328	1500.953735351563	-574.2213745117189	251.2772674560547	1512.096069335938	-645.7490844726564	-288.1303405761719	1015.559143066406	-868.1247558593752	-277.9807434082032	1006.27490234375	-657.1926269531251	-445.076873779297	1079.781005859375	-752.2892456054689	-450.7280883789064	1047.472412109375	-781.2881469726565	-446.5702514648439	1047.42578125	-723.4335937500001	-287.4992370605469	763.1145629882814	-951.8880004882815	-231.2994537353516	698.7852783203126	-949.4273071289065	-189.1010131835938	714.6596069335939	-932.7769165039065	-241.9089355468751	639.2103271484376	-944.2712402343752	-231.5737762451172	545.3070678710939	-938.5007934570315	-207.9550170898438	398.6670227050782	-916.8537597656252	-271.0155639648438	371.7666931152344	-972.2797851562502	-236.2313537597657	359.2130432128907	-949.7432250976565	-255.8426055908204	278.9576721191407	-920.7773437500002	-354.3044738769532	172.6302337646485	-954.4671020507815	-330.4599609375001	166.9175872802735	-874.1719970703127	-419.1507263183595	139.3874053955078	-899.0014648437502	-221.1433105468751	74.15191650390626	-904.2617797851565	-217.6499481201172	79.67350006103517	-943.205749511719	-269.9717407226563	72.47588348388673	-992.9749145507815	-315.8523864746094	802.7841796875002	-593.2550048828126	-275.0093994140626	750.7626953125001	-603.5549316406251	-250.480941772461	759.4885253906251	-626.5558471679689	-299.9307861328126	674.1968994140626	-606.0361328125001	-335.3529968261719	513.9977416992189	-643.7242431640626	-299.0429687500001	335.8724975585938	-715.4169921875001	-351.7025756835938	254.2141876220704	-663.3068237304689	-318.4606323242188	252.7004089355469	-696.9478149414064	-331.6495971679688	214.2524414062501	-739.9898681640626	-392.964569091797	128.1206359863282	-700.0903320312501	-377.0638122558594	134.6393432617188	-774.2266845703127	-456.1390686035157	106.7034912109375	-750.2781372070314	-257.3036804199219	53.76937484741212	-775.0290527343752	-249.1914978027344	54.50276184082033	-732.4707031250001	-292.7459106445313	50.83554840087892	-674.9662475585939	-281.0347595214844	1724.261108398438	-686.3376464843751	
394	1.965	-407.5939941406251	1682.260986328125	-827.3484497070315	-410.2704467773439	1678.314575195313	-687.6939697265626	-427.452606201172	1506.18701171875	-745.6044921875001	-449.4450683593751	1213.906005859375	-744.6790161132814	-287.2257995605469	1473.160278320313	-753.9668579101564	-353.8773193359376	1518.981567382813	-885.8514404296877	-226.6395263671876	1508.215576171875	-937.4733886718752	-202.5259399414063	1499.832641601563	-895.1889648437502	-159.9385223388672	1511.268676757813	-936.7801513671877	-86.52499389648439	1494.40966796875	-970.0325927734377	-82.8445510864258	1435.073364257813	-963.9346923828127	162.8792572021485	1505.324340820313	-883.9132080078127	158.8265686035157	1516.683715820313	-950.4332275390627	235.7818298339844	1519.156616210938	-880.273620605469	-337.6215515136719	1514.725830078125	-624.3984375000001	-210.2142486572266	1457.96484375	-531.3383178710939	-187.2664184570313	1487.688354492188	-565.0247802734376	-138.3126983642578	1461.8203125	-531.6031494140626	-63.84363937377931	1465.0068359375	-546.8991088867189	-69.6149139404297	1404.152709960938	-557.7005004882814	167.7523498535157	1492.28173828125	-638.0813598632814	181.3678588867188	1500.5859375	-573.8159790039064	253.6315002441407	1510.589965820313	-642.9645996093751	-288.0679931640626	1015.762573242188	-867.5327148437502	-278.0660095214844	1006.223388671875	-656.6115722656251	-445.0750122070314	1079.8994140625	-751.7698364257814	-450.6132202148439	1047.5859375	-780.8381958007815	-446.8249511718751	1047.625732421875	-722.9816894531251	-287.1444091796876	763.3782348632814	-951.021911621094	-230.8915405273438	699.1570434570314	-948.5697021484377	-188.8326110839844	715.3563232421876	-931.675964355469	-241.3068389892579	639.4976196289064	-943.161315917969	-230.6439666748047	545.3502807617189	-937.4319458007815	-206.5476074218751	398.8982238769532	-915.0551757812502	-268.4681396484376	371.4964904785157	-971.122985839844	-234.1306457519532	359.2972412109376	-948.0727539062502	-253.1260986328126	278.8278808593751	-918.9489746093752	-350.6956481933594	171.8201599121094	-952.9028930664065	-326.9648132324219	166.3080749511719	-872.497253417969	-415.2013549804689	137.8230285644532	-897.6428222656252	-217.8271026611329	74.15750885009767	-902.0779418945315	-213.3103790283204	79.30245208740236	-941.1629638671877	-264.5260620117188	71.62757110595705	-990.1214599609377	-315.9784545898438	802.761901855469	-592.7755737304689	-275.2196960449219	750.7741699218751	-603.0335693359376	-250.6668090820313	759.4900512695314	-626.0733642578126	-300.0632324218751	674.1110839843751	-605.6284790039064	-335.4579467773438	513.9204711914064	-643.4295654296876	-298.9488220214844	335.9121704101563	-715.1538085937501	-352.0897521972657	254.0429840087891	-663.1903076171876	-318.5981445312501	252.6799926757813	-696.7852172851564	-331.6108093261719	214.2781066894532	-739.8442993164064	-392.989471435547	128.1296997070313	-700.0606079101564	-376.9666442871094	134.6142730712891	-774.137878417969	-456.027801513672	106.6079406738282	-750.3201904296876	-257.3814697265626	53.73670959472658	-775.0511474609377	-249.1555938720704	54.43867492675783	-732.5664062500001	-292.6746826171876	50.76801681518556	-674.9071655273439	-280.9266052246094	1724.47412109375	-686.0479125976564	
